{
	"patcher" : 	{
		"fileversion" : 1,
		"appversion" : 		{
			"major" : 8,
			"minor" : 5,
			"revision" : 3,
			"architecture" : "x64",
			"modernui" : 1
		}
,
		"classnamespace" : "box",
		"rect" : [ 42.0, 85.0, 1452.0, 921.0 ],
		"bglocked" : 0,
		"openinpresentation" : 0,
		"default_fontsize" : 12.0,
		"default_fontface" : 0,
		"default_fontname" : "Arial",
		"gridonopen" : 1,
		"gridsize" : [ 15.0, 15.0 ],
		"gridsnaponopen" : 1,
		"objectsnaponopen" : 1,
		"statusbarvisible" : 2,
		"toolbarvisible" : 1,
		"lefttoolbarpinned" : 0,
		"toptoolbarpinned" : 0,
		"righttoolbarpinned" : 0,
		"bottomtoolbarpinned" : 0,
		"toolbars_unpinned_last_save" : 0,
		"tallnewobj" : 0,
		"boxanimatetime" : 200,
		"enablehscroll" : 1,
		"enablevscroll" : 1,
		"devicewidth" : 0.0,
		"description" : "",
		"digest" : "",
		"tags" : "",
		"style" : "",
		"subpatcher_template" : "",
		"assistshowspatchername" : 0,
		"boxes" : [ 			{
				"box" : 				{
					"id" : "obj-57",
					"maxclass" : "newobj",
					"numinlets" : 1,
					"numoutlets" : 1,
					"outlettype" : [ "" ],
					"patching_rect" : [ 772.0, 413.0, 83.0, 22.0 ],
					"text" : "loadmess 512"
				}

			}
, 			{
				"box" : 				{
					"id" : "obj-56",
					"maxclass" : "newobj",
					"numinlets" : 1,
					"numoutlets" : 2,
					"outlettype" : [ "float", "float" ],
					"patching_rect" : [ 315.0, 502.0, 29.5, 22.0 ],
					"text" : "t f f"
				}

			}
, 			{
				"box" : 				{
					"id" : "obj-54",
					"maxclass" : "number",
					"numinlets" : 1,
					"numoutlets" : 2,
					"outlettype" : [ "", "bang" ],
					"parameter_enable" : 0,
					"patching_rect" : [ 772.0, 467.0, 50.0, 22.0 ]
				}

			}
, 			{
				"box" : 				{
					"id" : "obj-34",
					"maxclass" : "message",
					"numinlets" : 2,
					"numoutlets" : 1,
					"outlettype" : [ "" ],
					"patching_rect" : [ 919.0, 544.0, 61.0, 22.0 ],
					"text" : "samps $1"
				}

			}
, 			{
				"box" : 				{
					"id" : "obj-29",
					"linecount" : 2,
					"maxclass" : "comment",
					"numinlets" : 1,
					"numoutlets" : 0,
					"patching_rect" : [ 846.0, 616.0, 150.0, 34.0 ],
					"text" : "Gaussian Envelope for clean sounds"
				}

			}
, 			{
				"box" : 				{
					"id" : "obj-45",
					"maxclass" : "newobj",
					"numinlets" : 1,
					"numoutlets" : 0,
					"patching_rect" : [ 198.878048896789551, 42.0, 78.0, 22.0 ],
					"text" : "s #0-start"
				}

			}
, 			{
				"box" : 				{
					"id" : "obj-44",
					"maxclass" : "newobj",
					"numinlets" : 1,
					"numoutlets" : 0,
					"patching_rect" : [ 663.5, 572.0, 80.0, 22.0 ],
					"text" : "s #0-done"
				}

			}
, 			{
				"box" : 				{
					"id" : "obj-22",
					"maxclass" : "newobj",
					"numinlets" : 0,
					"numoutlets" : 1,
					"outlettype" : [ "" ],
					"patching_rect" : [ 485.878048896789551, 770.0, 78.0, 22.0 ],
					"text" : "r #0-start"
				}

			}
, 			{
				"box" : 				{
					"id" : "obj-32",
					"maxclass" : "newobj",
					"numinlets" : 0,
					"numoutlets" : 1,
					"outlettype" : [ "" ],
					"patching_rect" : [ 399.0, 770.0, 80.0, 22.0 ],
					"text" : "r #0-done"
				}

			}
, 			{
				"box" : 				{
					"id" : "obj-35",
					"maxclass" : "newobj",
					"numinlets" : 1,
					"numoutlets" : 1,
					"outlettype" : [ "bang" ],
					"patching_rect" : [ 383.878048896789551, 737.073168754577637, 71.0, 22.0 ],
					"text" : "loadbang"
				}

			}
, 			{
				"box" : 				{
					"id" : "obj-37",
					"maxclass" : "message",
					"numinlets" : 2,
					"numoutlets" : 1,
					"outlettype" : [ "" ],
					"patching_rect" : [ 383.878048896789551, 806.073168754577637, 71.0, 22.0 ],
					"text" : "mute 1, 0"
				}

			}
, 			{
				"box" : 				{
					"fontname" : "Arial",
					"fontsize" : 13.0,
					"id" : "obj-39",
					"maxclass" : "message",
					"numinlets" : 2,
					"numoutlets" : 1,
					"outlettype" : [ "" ],
					"patching_rect" : [ 485.878048896789551, 806.073168754577637, 97.0, 23.0 ],
					"text" : "mute 0, 1"
				}

			}
, 			{
				"box" : 				{
					"id" : "obj-41",
					"maxclass" : "number",
					"numinlets" : 1,
					"numoutlets" : 2,
					"outlettype" : [ "", "bang" ],
					"parameter_enable" : 0,
					"patching_rect" : [ 485.878048896789551, 914.073168754577637, 50.0, 22.0 ]
				}

			}
, 			{
				"box" : 				{
					"id" : "obj-43",
					"maxclass" : "newobj",
					"numinlets" : 1,
					"numoutlets" : 3,
					"outlettype" : [ "int", "int", "int" ],
					"patching_rect" : [ 485.878048896789551, 870.073168754577637, 100.0, 22.0 ],
					"text" : "thispoly~"
				}

			}
, 			{
				"box" : 				{
					"id" : "obj-46",
					"maxclass" : "message",
					"numinlets" : 2,
					"numoutlets" : 1,
					"outlettype" : [ "" ],
					"patching_rect" : [ 391.0, 606.0, 35.0, 22.0 ],
					"text" : "0. 10"
				}

			}
, 			{
				"box" : 				{
					"id" : "obj-16",
					"maxclass" : "newobj",
					"numinlets" : 2,
					"numoutlets" : 1,
					"outlettype" : [ "signal" ],
					"patching_rect" : [ 14.99996000064084, 745.487822294235229, 51.938271999359131, 22.0 ],
					"text" : "*~ 0.5"
				}

			}
, 			{
				"box" : 				{
					"id" : "obj-26",
					"maxclass" : "scope~",
					"numinlets" : 2,
					"numoutlets" : 0,
					"patching_rect" : [ 605.0, 716.0, 327.0, 87.0 ],
					"range" : [ 0.0, 1.0 ]
				}

			}
, 			{
				"box" : 				{
					"id" : "obj-15",
					"maxclass" : "button",
					"numinlets" : 1,
					"numoutlets" : 1,
					"outlettype" : [ "bang" ],
					"parameter_enable" : 0,
					"patching_rect" : [ 315.0, 143.0, 24.0, 24.0 ]
				}

			}
, 			{
				"box" : 				{
					"id" : "obj-52",
					"maxclass" : "newobj",
					"numinlets" : 5,
					"numoutlets" : 5,
					"outlettype" : [ "bang", "bang", "bang", "bang", "" ],
					"patching_rect" : [ 365.243905782699585, 78.0, 357.0, 22.0 ],
					"text" : "sel 0 1 2 3"
				}

			}
, 			{
				"box" : 				{
					"id" : "obj-51",
					"maxclass" : "message",
					"numinlets" : 2,
					"numoutlets" : 1,
					"outlettype" : [ "" ],
					"patching_rect" : [ 618.743905782699585, 126.0, 126.0, 22.0 ],
					"text" : "set #0-gong2\n"
				}

			}
, 			{
				"box" : 				{
					"id" : "obj-50",
					"maxclass" : "message",
					"numinlets" : 2,
					"numoutlets" : 1,
					"outlettype" : [ "" ],
					"patching_rect" : [ 573.243905782699585, 161.0, 102.0, 22.0 ],
					"text" : "set #0-gong1\n"
				}

			}
, 			{
				"box" : 				{
					"id" : "obj-49",
					"maxclass" : "message",
					"numinlets" : 2,
					"numoutlets" : 1,
					"outlettype" : [ "" ],
					"patching_rect" : [ 456.243905782699585, 137.0, 115.0, 22.0 ],
					"text" : "set #0-drum\n"
				}

			}
, 			{
				"box" : 				{
					"id" : "obj-48",
					"maxclass" : "message",
					"numinlets" : 2,
					"numoutlets" : 1,
					"outlettype" : [ "" ],
					"patching_rect" : [ 365.243905782699585, 137.0, 89.0, 22.0 ],
					"text" : "set #0-anton"
				}

			}
, 			{
				"box" : 				{
					"id" : "obj-36",
					"maxclass" : "newobj",
					"numinlets" : 1,
					"numoutlets" : 2,
					"outlettype" : [ "float", "bang" ],
					"patching_rect" : [ 772.0, 169.0, 224.0, 22.0 ],
					"text" : "buffer~ #0-gong2 ./audio/gong2.wav "
				}

			}
, 			{
				"box" : 				{
					"id" : "obj-31",
					"maxclass" : "newobj",
					"numinlets" : 1,
					"numoutlets" : 2,
					"outlettype" : [ "float", "bang" ],
					"patching_rect" : [ 772.0, 137.0, 236.0, 22.0 ],
					"text" : "buffer~ #0-gong1 ./audio/gong1.aiff "
				}

			}
, 			{
				"box" : 				{
					"id" : "obj-19",
					"maxclass" : "newobj",
					"numinlets" : 1,
					"numoutlets" : 2,
					"outlettype" : [ "float", "bang" ],
					"patching_rect" : [ 772.0, 110.0, 187.0, 22.0 ],
					"text" : "buffer~ #0-drum drumLoop.aif"
				}

			}
, 			{
				"box" : 				{
					"id" : "obj-14",
					"maxclass" : "newobj",
					"numinlets" : 2,
					"numoutlets" : 2,
					"outlettype" : [ "signal", "bang" ],
					"patching_rect" : [ 54.938271999359131, 651.0, 34.0, 22.0 ],
					"text" : "line~"
				}

			}
, 			{
				"box" : 				{
					"id" : "obj-40",
					"maxclass" : "newobj",
					"numinlets" : 1,
					"numoutlets" : 2,
					"outlettype" : [ "float", "bang" ],
					"patching_rect" : [ 919.0, 658.0, 131.0, 22.0 ],
					"text" : "buffer~ #0-gaussenv"
				}

			}
, 			{
				"box" : 				{
					"id" : "obj-38",
					"maxclass" : "newobj",
					"numinlets" : 3,
					"numoutlets" : 1,
					"outlettype" : [ "float" ],
					"patching_rect" : [ 772.0, 658.0, 134.0, 22.0 ],
					"text" : "peek~ #0-gaussenv"
				}

			}
, 			{
				"box" : 				{
					"id" : "obj-33",
					"maxclass" : "message",
					"numinlets" : 2,
					"numoutlets" : 1,
					"outlettype" : [ "" ],
					"patching_rect" : [ 605.0, 524.0, 52.0, 22.0 ],
					"text" : "0., 1. $1"
				}

			}
, 			{
				"box" : 				{
					"id" : "obj-30",
					"maxclass" : "newobj",
					"numinlets" : 2,
					"numoutlets" : 2,
					"outlettype" : [ "signal", "bang" ],
					"patching_rect" : [ 605.0, 572.0, 34.0, 22.0 ],
					"text" : "line~"
				}

			}
, 			{
				"box" : 				{
					"id" : "obj-28",
					"maxclass" : "newobj",
					"numinlets" : 3,
					"numoutlets" : 1,
					"outlettype" : [ "signal" ],
					"patching_rect" : [ 605.0, 622.0, 149.0, 22.0 ],
					"text" : "wave~ #0-gaussenv 0."
				}

			}
, 			{
				"box" : 				{
					"id" : "obj-24",
					"maxclass" : "newobj",
					"numinlets" : 1,
					"numoutlets" : 1,
					"outlettype" : [ "" ],
					"patcher" : 					{
						"fileversion" : 1,
						"appversion" : 						{
							"major" : 8,
							"minor" : 5,
							"revision" : 3,
							"architecture" : "x64",
							"modernui" : 1
						}
,
						"classnamespace" : "box",
						"rect" : [ 686.0, 337.0, 640.0, 480.0 ],
						"bglocked" : 0,
						"openinpresentation" : 0,
						"default_fontsize" : 12.0,
						"default_fontface" : 0,
						"default_fontname" : "Arial",
						"gridonopen" : 1,
						"gridsize" : [ 15.0, 15.0 ],
						"gridsnaponopen" : 1,
						"objectsnaponopen" : 1,
						"statusbarvisible" : 2,
						"toolbarvisible" : 1,
						"lefttoolbarpinned" : 0,
						"toptoolbarpinned" : 0,
						"righttoolbarpinned" : 0,
						"bottomtoolbarpinned" : 0,
						"toolbars_unpinned_last_save" : 0,
						"tallnewobj" : 0,
						"boxanimatetime" : 200,
						"enablehscroll" : 1,
						"enablevscroll" : 1,
						"devicewidth" : 0.0,
						"description" : "",
						"digest" : "",
						"tags" : "",
						"style" : "",
						"subpatcher_template" : "",
						"assistshowspatchername" : 0,
						"boxes" : [ 							{
								"box" : 								{
									"id" : "obj-8",
									"maxclass" : "newobj",
									"numinlets" : 1,
									"numoutlets" : 2,
									"outlettype" : [ "bang", "" ],
									"patching_rect" : [ 311.0, 45.0, 29.5, 22.0 ],
									"text" : "t b l"
								}

							}
, 							{
								"box" : 								{
									"id" : "obj-7",
									"maxclass" : "message",
									"numinlets" : 2,
									"numoutlets" : 1,
									"outlettype" : [ "" ],
									"patching_rect" : [ 296.75, 128.0, 50.0, 22.0 ],
									"text" : "54"
								}

							}
, 							{
								"box" : 								{
									"id" : "obj-2",
									"maxclass" : "newobj",
									"numinlets" : 1,
									"numoutlets" : 2,
									"outlettype" : [ "bang", "int" ],
									"patching_rect" : [ 187.0, 72.0, 29.5, 22.0 ],
									"text" : "t b i"
								}

							}
, 							{
								"box" : 								{
									"comment" : "",
									"id" : "obj-1",
									"index" : 1,
									"maxclass" : "inlet",
									"numinlets" : 0,
									"numoutlets" : 1,
									"outlettype" : [ "" ],
									"patching_rect" : [ 202.0, 20.0, 30.0, 30.0 ]
								}

							}
, 							{
								"box" : 								{
									"comment" : "",
									"id" : "obj-14",
									"index" : 1,
									"maxclass" : "outlet",
									"numinlets" : 1,
									"numoutlets" : 0,
									"patching_rect" : [ 217.0, 263.0, 30.0, 30.0 ]
								}

							}
, 							{
								"box" : 								{
									"id" : "obj-6",
									"maxclass" : "newobj",
									"numinlets" : 2,
									"numoutlets" : 1,
									"outlettype" : [ "" ],
									"patching_rect" : [ 217.0, 223.0, 47.0, 22.0 ],
									"text" : "pack i f"
								}

							}
, 							{
								"box" : 								{
									"id" : "obj-5",
									"maxclass" : "newobj",
									"numinlets" : 2,
									"numoutlets" : 1,
									"outlettype" : [ "" ],
									"patching_rect" : [ 241.0, 182.0, 294.0, 22.0 ],
									"text" : "expr exp(-0.5*pow(($i1-(($i2-1)/2))/(0.4*(($i2-1)/2))\\,2))"
								}

							}
, 							{
								"box" : 								{
									"id" : "obj-4",
									"maxclass" : "newobj",
									"numinlets" : 2,
									"numoutlets" : 3,
									"outlettype" : [ "bang", "bang", "int" ],
									"patching_rect" : [ 187.0, 128.0, 49.0, 22.0 ],
									"text" : "Uzi 512"
								}

							}
 ],
						"lines" : [ 							{
								"patchline" : 								{
									"destination" : [ "obj-2", 0 ],
									"source" : [ "obj-1", 0 ]
								}

							}
, 							{
								"patchline" : 								{
									"destination" : [ "obj-4", 1 ],
									"order" : 1,
									"source" : [ "obj-2", 1 ]
								}

							}
, 							{
								"patchline" : 								{
									"destination" : [ "obj-4", 0 ],
									"source" : [ "obj-2", 0 ]
								}

							}
, 							{
								"patchline" : 								{
									"destination" : [ "obj-8", 0 ],
									"order" : 0,
									"source" : [ "obj-2", 1 ]
								}

							}
, 							{
								"patchline" : 								{
									"destination" : [ "obj-5", 0 ],
									"order" : 0,
									"source" : [ "obj-4", 2 ]
								}

							}
, 							{
								"patchline" : 								{
									"destination" : [ "obj-6", 0 ],
									"order" : 1,
									"source" : [ "obj-4", 2 ]
								}

							}
, 							{
								"patchline" : 								{
									"destination" : [ "obj-6", 1 ],
									"source" : [ "obj-5", 0 ]
								}

							}
, 							{
								"patchline" : 								{
									"destination" : [ "obj-14", 0 ],
									"source" : [ "obj-6", 0 ]
								}

							}
, 							{
								"patchline" : 								{
									"destination" : [ "obj-5", 1 ],
									"source" : [ "obj-7", 0 ]
								}

							}
, 							{
								"patchline" : 								{
									"destination" : [ "obj-7", 1 ],
									"source" : [ "obj-8", 1 ]
								}

							}
, 							{
								"patchline" : 								{
									"destination" : [ "obj-7", 0 ],
									"source" : [ "obj-8", 0 ]
								}

							}
 ]
					}
,
					"patching_rect" : [ 772.0, 544.0, 70.0, 22.0 ],
					"saved_object_attributes" : 					{
						"description" : "",
						"digest" : "",
						"globalpatchername" : "",
						"tags" : ""
					}
,
					"text" : "p gaussenv"
				}

			}
, 			{
				"box" : 				{
					"id" : "obj-2",
					"maxclass" : "newobj",
					"numinlets" : 2,
					"numoutlets" : 1,
					"outlettype" : [ "int" ],
					"patching_rect" : [ 78.688271999359131, 506.0, 29.5, 22.0 ],
					"text" : "+"
				}

			}
, 			{
				"box" : 				{
					"id" : "obj-23",
					"maxclass" : "newobj",
					"numinlets" : 1,
					"numoutlets" : 2,
					"outlettype" : [ "float", "bang" ],
					"patching_rect" : [ 772.0, 78.0, 166.0, 22.0 ],
					"text" : "buffer~ #0-anton anton.aif"
				}

			}
, 			{
				"box" : 				{
					"id" : "obj-25",
					"maxclass" : "newobj",
					"numinlets" : 2,
					"numoutlets" : 1,
					"outlettype" : [ "signal" ],
					"patching_rect" : [ 76.0, 730.0, 29.5, 22.0 ],
					"text" : "*~"
				}

			}
, 			{
				"box" : 				{
					"id" : "obj-20",
					"maxclass" : "newobj",
					"numinlets" : 1,
					"numoutlets" : 3,
					"outlettype" : [ "bang", "", "bang" ],
					"patching_rect" : [ 54.938271999359131, 42.0, 82.561728000640869, 22.0 ],
					"text" : "t b l b"
				}

			}
, 			{
				"box" : 				{
					"id" : "obj-11",
					"maxclass" : "number",
					"numinlets" : 1,
					"numoutlets" : 2,
					"outlettype" : [ "", "bang" ],
					"parameter_enable" : 0,
					"patching_rect" : [ 266.0, 781.0, 50.0, 22.0 ]
				}

			}
, 			{
				"box" : 				{
					"id" : "obj-27",
					"maxclass" : "newobj",
					"numinlets" : 1,
					"numoutlets" : 4,
					"outlettype" : [ "int", "float", "int", "int" ],
					"patching_rect" : [ 54.938271999359131, 89.0, 83.0, 22.0 ],
					"text" : "unpack i f i i"
				}

			}
, 			{
				"box" : 				{
					"id" : "obj-21",
					"maxclass" : "number",
					"numinlets" : 1,
					"numoutlets" : 2,
					"outlettype" : [ "", "bang" ],
					"parameter_enable" : 0,
					"patching_rect" : [ 185.041385054588318, 651.0, 50.0, 22.0 ]
				}

			}
, 			{
				"box" : 				{
					"id" : "obj-10",
					"maxclass" : "newobj",
					"numinlets" : 1,
					"numoutlets" : 1,
					"outlettype" : [ "" ],
					"patching_rect" : [ 54.938271999359131, 13.0, 28.0, 22.0 ],
					"saved_object_attributes" : 					{
						"attr_comment" : [ "Y", "for", "Start", "Pos" ]
					}
,
					"text" : "in 1"
				}

			}
, 			{
				"box" : 				{
					"id" : "obj-5",
					"maxclass" : "newobj",
					"numinlets" : 1,
					"numoutlets" : 0,
					"patching_rect" : [ 208.541385054588318, 824.0, 42.0, 22.0 ],
					"saved_object_attributes" : 					{
						"attr_comment" : [ "Audio", "R" ]
					}
,
					"text" : "out~ 2"
				}

			}
, 			{
				"box" : 				{
					"id" : "obj-3",
					"maxclass" : "newobj",
					"numinlets" : 1,
					"numoutlets" : 0,
					"patching_rect" : [ 61.0, 827.512177705764771, 42.0, 22.0 ],
					"saved_object_attributes" : 					{
						"attr_comment" : [ "Audio", "L" ]
					}
,
					"text" : "out~ 1"
				}

			}
, 			{
				"box" : 				{
					"id" : "obj-6",
					"maxclass" : "comment",
					"numinlets" : 1,
					"numoutlets" : 0,
					"patching_rect" : [ 292.541385054588318, 742.463431119918823, 60.0, 20.0 ],
					"text" : "Pan"
				}

			}
, 			{
				"box" : 				{
					"id" : "obj-4",
					"maxclass" : "newobj",
					"numinlets" : 1,
					"numoutlets" : 3,
					"outlettype" : [ "float", "float", "bang" ],
					"patching_rect" : [ 55.188271999359131, 467.0, 66.0, 22.0 ],
					"text" : "t f f b"
				}

			}
, 			{
				"box" : 				{
					"id" : "obj-9",
					"maxclass" : "newobj",
					"numinlets" : 6,
					"numoutlets" : 1,
					"outlettype" : [ "" ],
					"patching_rect" : [ 185.041385054588318, 742.463431119918823, 97.0, 22.0 ],
					"text" : "scale 0 31 0 100"
				}

			}
, 			{
				"box" : 				{
					"id" : "obj-8",
					"maxclass" : "newobj",
					"numinlets" : 2,
					"numoutlets" : 2,
					"outlettype" : [ "signal", "signal" ],
					"patching_rect" : [ 39.938271999359131, 781.0, 132.0, 22.0 ],
					"text" : "./max/jwpanner.maxpat"
				}

			}
, 			{
				"box" : 				{
					"id" : "obj-1",
					"maxclass" : "newobj",
					"numinlets" : 1,
					"numoutlets" : 2,
					"outlettype" : [ "signal", "bang" ],
					"patching_rect" : [ 54.938271999359131, 697.341478824615479, 102.0, 22.0 ],
					"text" : "play~ #0-anton"
				}

			}
, 			{
				"box" : 				{
					"id" : "obj-151",
					"maxclass" : "newobj",
					"numinlets" : 1,
					"numoutlets" : 2,
					"outlettype" : [ "bang", "" ],
					"patching_rect" : [ 389.0, 211.0, 29.5, 22.0 ],
					"text" : "t b l"
				}

			}
, 			{
				"box" : 				{
					"fontname" : "Arial",
					"fontsize" : 13.0,
					"id" : "obj-13",
					"maxclass" : "message",
					"numinlets" : 2,
					"numoutlets" : 1,
					"outlettype" : [ "" ],
					"patching_rect" : [ 563.0, 214.5, 57.0, 23.0 ],
					"text" : "0 -1 0 -1"
				}

			}
, 			{
				"box" : 				{
					"id" : "obj-125",
					"maxclass" : "newobj",
					"numinlets" : 2,
					"numoutlets" : 1,
					"outlettype" : [ "float" ],
					"patching_rect" : [ 277.25, 438.0, 29.5, 22.0 ],
					"text" : "* 0."
				}

			}
, 			{
				"box" : 				{
					"id" : "obj-117",
					"maxclass" : "message",
					"numinlets" : 2,
					"numoutlets" : 1,
					"outlettype" : [ "" ],
					"patching_rect" : [ 54.938271999359131, 613.975312530994415, 59.0, 22.0 ],
					"text" : "$1, $2 $3"
				}

			}
, 			{
				"box" : 				{
					"id" : "obj-115",
					"maxclass" : "comment",
					"numinlets" : 1,
					"numoutlets" : 0,
					"patching_rect" : [ 365.243905782699585, 396.0, 43.0, 20.0 ],
					"text" : "Pitch"
				}

			}
, 			{
				"box" : 				{
					"format" : 6,
					"id" : "obj-113",
					"maxclass" : "flonum",
					"numinlets" : 1,
					"numoutlets" : 2,
					"outlettype" : [ "", "bang" ],
					"parameter_enable" : 0,
					"patching_rect" : [ 297.541385054588318, 396.0, 50.0, 22.0 ]
				}

			}
, 			{
				"box" : 				{
					"id" : "obj-108",
					"maxclass" : "comment",
					"numinlets" : 1,
					"numoutlets" : 0,
					"patching_rect" : [ 106.938271999359131, 432.0, 69.0, 20.0 ],
					"text" : "Start Point"
				}

			}
, 			{
				"box" : 				{
					"id" : "obj-106",
					"maxclass" : "comment",
					"numinlets" : 1,
					"numoutlets" : 0,
					"patching_rect" : [ 266.541385054588318, 255.0, 59.0, 20.0 ],
					"text" : "Duration"
				}

			}
, 			{
				"box" : 				{
					"id" : "obj-104",
					"maxclass" : "newobj",
					"numinlets" : 1,
					"numoutlets" : 2,
					"outlettype" : [ "", "" ],
					"patching_rect" : [ 184.541385054588318, 188.0, 43.0, 22.0 ],
					"text" : "t l l"
				}

			}
, 			{
				"box" : 				{
					"id" : "obj-99",
					"maxclass" : "newobj",
					"numinlets" : 2,
					"numoutlets" : 1,
					"outlettype" : [ "float" ],
					"patching_rect" : [ 184.541385054588318, 293.0, 43.0, 22.0 ],
					"text" : "- 1."
				}

			}
, 			{
				"box" : 				{
					"format" : 6,
					"id" : "obj-96",
					"maxclass" : "flonum",
					"numinlets" : 1,
					"numoutlets" : 2,
					"outlettype" : [ "", "bang" ],
					"parameter_enable" : 0,
					"patching_rect" : [ 208.541385054588318, 255.0, 50.0, 22.0 ]
				}

			}
, 			{
				"box" : 				{
					"id" : "obj-92",
					"maxclass" : "newobj",
					"numinlets" : 2,
					"numoutlets" : 1,
					"outlettype" : [ "float" ],
					"patching_rect" : [ 208.541385054588318, 220.0, 32.0, 22.0 ],
					"text" : "/ 32."
				}

			}
, 			{
				"box" : 				{
					"id" : "obj-91",
					"maxclass" : "newobj",
					"numinlets" : 1,
					"numoutlets" : 2,
					"outlettype" : [ "bang", "" ],
					"patching_rect" : [ 184.541385054588318, 103.0, 50.0, 22.0 ],
					"text" : "t b l"
				}

			}
, 			{
				"box" : 				{
					"id" : "obj-90",
					"linecount" : 2,
					"maxclass" : "message",
					"numinlets" : 2,
					"numoutlets" : 1,
					"outlettype" : [ "" ],
					"patching_rect" : [ 184.541385054588318, 144.0, 50.0, 36.0 ],
					"text" : "2311.54203"
				}

			}
, 			{
				"box" : 				{
					"format" : 6,
					"id" : "obj-80",
					"maxclass" : "flonum",
					"numinlets" : 1,
					"numoutlets" : 2,
					"outlettype" : [ "", "bang" ],
					"parameter_enable" : 0,
					"patching_rect" : [ 54.938271999359131, 432.0, 50.0, 22.0 ]
				}

			}
, 			{
				"box" : 				{
					"id" : "obj-76",
					"maxclass" : "number",
					"numinlets" : 1,
					"numoutlets" : 2,
					"outlettype" : [ "", "bang" ],
					"parameter_enable" : 0,
					"patching_rect" : [ 54.938271999359131, 275.0, 50.0, 22.0 ]
				}

			}
, 			{
				"box" : 				{
					"id" : "obj-73",
					"maxclass" : "newobj",
					"numinlets" : 6,
					"numoutlets" : 1,
					"outlettype" : [ "" ],
					"patching_rect" : [ 54.938271999359131, 344.0, 71.5, 22.0 ],
					"text" : "scale 0 31"
				}

			}
, 			{
				"box" : 				{
					"id" : "obj-72",
					"maxclass" : "newobj",
					"numinlets" : 3,
					"numoutlets" : 1,
					"outlettype" : [ "" ],
					"patching_rect" : [ 54.938271999359131, 540.0, 66.5, 22.0 ],
					"text" : "pack i i i"
				}

			}
, 			{
				"box" : 				{
					"buffername" : "6103-anton",
					"id" : "obj-66",
					"maxclass" : "waveform~",
					"numinlets" : 5,
					"numoutlets" : 6,
					"outlettype" : [ "float", "float", "float", "float", "list", "" ],
					"patching_rect" : [ 389.0, 255.0, 256.0, 64.0 ]
				}

			}
, 			{
				"box" : 				{
					"comment" : "Y Input for Grain Duration Chooser",
					"id" : "obj-12",
					"index" : 0,
					"maxclass" : "inlet",
					"numinlets" : 0,
					"numoutlets" : 1,
					"outlettype" : [ "" ],
					"patching_rect" : [ 54.938271999359131, 211.0, 30.0, 30.0 ]
				}

			}
, 			{
				"box" : 				{
					"comment" : "Audio out L",
					"id" : "obj-17",
					"index" : 0,
					"maxclass" : "outlet",
					"numinlets" : 1,
					"numoutlets" : 0,
					"patching_rect" : [ 39.938231999999971, 862.999970705764781, 30.0, 30.0 ]
				}

			}
, 			{
				"box" : 				{
					"comment" : "Audio out R",
					"id" : "obj-18",
					"index" : 0,
					"maxclass" : "outlet",
					"numinlets" : 1,
					"numoutlets" : 0,
					"patching_rect" : [ 184.938231999999971, 863.487793000000011, 30.0, 30.0 ]
				}

			}
 ],
		"lines" : [ 			{
				"patchline" : 				{
					"destination" : [ "obj-25", 0 ],
					"midpoints" : [ 64.438271999359131, 720.0, 85.5, 720.0 ],
					"source" : [ "obj-1", 0 ]
				}

			}
, 			{
				"patchline" : 				{
					"destination" : [ "obj-20", 0 ],
					"midpoints" : [ 64.438271999359131, 36.0, 64.438271999359131, 36.0 ],
					"source" : [ "obj-10", 0 ]
				}

			}
, 			{
				"patchline" : 				{
					"destination" : [ "obj-92", 0 ],
					"midpoints" : [ 218.041385054588318, 213.0, 218.041385054588318, 213.0 ],
					"source" : [ "obj-104", 1 ]
				}

			}
, 			{
				"patchline" : 				{
					"destination" : [ "obj-99", 0 ],
					"midpoints" : [ 194.041385054588318, 213.0, 194.041385054588318, 213.0 ],
					"source" : [ "obj-104", 0 ]
				}

			}
, 			{
				"patchline" : 				{
					"destination" : [ "obj-125", 1 ],
					"midpoints" : [ 307.041385054588318, 420.0, 300.0, 420.0, 300.0, 432.0, 297.25, 432.0 ],
					"source" : [ "obj-113", 0 ]
				}

			}
, 			{
				"patchline" : 				{
					"destination" : [ "obj-14", 0 ],
					"midpoints" : [ 64.438271999359131, 636.0, 64.438271999359131, 636.0 ],
					"source" : [ "obj-117", 0 ]
				}

			}
, 			{
				"patchline" : 				{
					"destination" : [ "obj-76", 0 ],
					"midpoints" : [ 64.438271999359131, 243.0, 64.438271999359131, 243.0 ],
					"source" : [ "obj-12", 0 ]
				}

			}
, 			{
				"patchline" : 				{
					"destination" : [ "obj-2", 1 ],
					"midpoints" : [ 286.75, 500.0, 98.688271999359131, 500.0 ],
					"order" : 1,
					"source" : [ "obj-125", 0 ]
				}

			}
, 			{
				"patchline" : 				{
					"destination" : [ "obj-56", 0 ],
					"order" : 0,
					"source" : [ "obj-125", 0 ]
				}

			}
, 			{
				"patchline" : 				{
					"destination" : [ "obj-66", 4 ],
					"midpoints" : [ 572.5, 240.0, 635.5, 240.0 ],
					"source" : [ "obj-13", 0 ]
				}

			}
, 			{
				"patchline" : 				{
					"destination" : [ "obj-1", 0 ],
					"midpoints" : [ 64.438271999359131, 675.0, 64.438271999359131, 675.0 ],
					"source" : [ "obj-14", 0 ]
				}

			}
, 			{
				"patchline" : 				{
					"destination" : [ "obj-13", 0 ],
					"midpoints" : [ 398.5, 234.0, 549.0, 234.0, 549.0, 210.0, 572.5, 210.0 ],
					"source" : [ "obj-151", 0 ]
				}

			}
, 			{
				"patchline" : 				{
					"destination" : [ "obj-66", 0 ],
					"midpoints" : [ 409.0, 234.0, 398.5, 234.0 ],
					"source" : [ "obj-151", 1 ]
				}

			}
, 			{
				"patchline" : 				{
					"destination" : [ "obj-8", 0 ],
					"midpoints" : [ 24.49996000064084, 777.0, 49.438271999359131, 777.0 ],
					"source" : [ "obj-16", 0 ]
				}

			}
, 			{
				"patchline" : 				{
					"destination" : [ "obj-72", 1 ],
					"midpoints" : [ 88.188271999359131, 531.0, 88.188271999359131, 531.0 ],
					"source" : [ "obj-2", 0 ]
				}

			}
, 			{
				"patchline" : 				{
					"destination" : [ "obj-27", 0 ],
					"midpoints" : [ 96.219135999679565, 72.0, 66.0, 72.0, 66.0, 84.0, 64.438271999359131, 84.0 ],
					"source" : [ "obj-20", 1 ]
				}

			}
, 			{
				"patchline" : 				{
					"destination" : [ "obj-27", 0 ],
					"midpoints" : [ 64.438271999359131, 72.0, 64.438271999359131, 72.0 ],
					"source" : [ "obj-20", 0 ]
				}

			}
, 			{
				"patchline" : 				{
					"destination" : [ "obj-45", 0 ],
					"order" : 1,
					"source" : [ "obj-20", 2 ]
				}

			}
, 			{
				"patchline" : 				{
					"destination" : [ "obj-46", 0 ],
					"midpoints" : [ 128.0, 72.0, 171.0, 72.0, 171.0, 417.0, 264.0, 417.0, 264.0, 591.0, 400.5, 591.0 ],
					"order" : 0,
					"source" : [ "obj-20", 2 ]
				}

			}
, 			{
				"patchline" : 				{
					"destination" : [ "obj-9", 0 ],
					"midpoints" : [ 194.541385054588318, 675.0, 194.541385054588318, 675.0 ],
					"source" : [ "obj-21", 0 ]
				}

			}
, 			{
				"patchline" : 				{
					"destination" : [ "obj-39", 0 ],
					"midpoints" : [ 495.378048896789551, 795.0, 495.378048896789551, 795.0 ],
					"source" : [ "obj-22", 0 ]
				}

			}
, 			{
				"patchline" : 				{
					"destination" : [ "obj-38", 0 ],
					"midpoints" : [ 781.5, 645.0, 781.5, 645.0 ],
					"source" : [ "obj-24", 0 ]
				}

			}
, 			{
				"patchline" : 				{
					"destination" : [ "obj-16", 0 ],
					"midpoints" : [ 85.5, 750.0, 75.0, 750.0, 75.0, 732.0, 24.49996000064084, 732.0 ],
					"source" : [ "obj-25", 0 ]
				}

			}
, 			{
				"patchline" : 				{
					"destination" : [ "obj-113", 0 ],
					"midpoints" : [ 85.771605332692459, 198.0, 171.0, 198.0, 171.0, 381.0, 307.041385054588318, 381.0 ],
					"source" : [ "obj-27", 1 ]
				}

			}
, 			{
				"patchline" : 				{
					"destination" : [ "obj-21", 0 ],
					"midpoints" : [ 107.104938666025788, 261.0, 171.0, 261.0, 171.0, 417.0, 194.541385054588318, 417.0 ],
					"source" : [ "obj-27", 2 ]
				}

			}
, 			{
				"patchline" : 				{
					"destination" : [ "obj-52", 0 ],
					"midpoints" : [ 128.438271999359131, 114.0, 171.0, 114.0, 171.0, 72.0, 374.743905782699585, 72.0 ],
					"source" : [ "obj-27", 3 ]
				}

			}
, 			{
				"patchline" : 				{
					"destination" : [ "obj-76", 0 ],
					"midpoints" : [ 64.438271999359131, 198.0, 39.0, 198.0, 39.0, 261.0, 64.438271999359131, 261.0 ],
					"source" : [ "obj-27", 0 ]
				}

			}
, 			{
				"patchline" : 				{
					"destination" : [ "obj-25", 1 ],
					"midpoints" : [ 614.5, 700.0, 168.0, 700.0, 168.0, 729.0, 120.0, 729.0, 120.0, 723.0, 96.0, 723.0 ],
					"order" : 1,
					"source" : [ "obj-28", 0 ]
				}

			}
, 			{
				"patchline" : 				{
					"destination" : [ "obj-26", 0 ],
					"midpoints" : [ 614.5, 645.0, 614.5, 645.0 ],
					"order" : 0,
					"source" : [ "obj-28", 0 ]
				}

			}
, 			{
				"patchline" : 				{
					"destination" : [ "obj-28", 0 ],
					"midpoints" : [ 614.5, 597.0, 614.5, 597.0 ],
					"source" : [ "obj-30", 0 ]
				}

			}
, 			{
				"patchline" : 				{
					"destination" : [ "obj-44", 0 ],
					"midpoints" : [ 629.5, 597.0, 660.0, 597.0, 660.0, 567.0, 673.0, 567.0 ],
					"source" : [ "obj-30", 1 ]
				}

			}
, 			{
				"patchline" : 				{
					"destination" : [ "obj-37", 0 ],
					"midpoints" : [ 408.5, 795.0, 396.0, 795.0, 396.0, 801.0, 393.378048896789551, 801.0 ],
					"source" : [ "obj-32", 0 ]
				}

			}
, 			{
				"patchline" : 				{
					"destination" : [ "obj-30", 0 ],
					"midpoints" : [ 614.5, 549.0, 614.5, 549.0 ],
					"source" : [ "obj-33", 0 ]
				}

			}
, 			{
				"patchline" : 				{
					"destination" : [ "obj-40", 0 ],
					"source" : [ "obj-34", 0 ]
				}

			}
, 			{
				"patchline" : 				{
					"destination" : [ "obj-37", 0 ],
					"midpoints" : [ 393.378048896789551, 762.0, 393.378048896789551, 762.0 ],
					"source" : [ "obj-35", 0 ]
				}

			}
, 			{
				"patchline" : 				{
					"destination" : [ "obj-43", 0 ],
					"midpoints" : [ 393.378048896789551, 855.0, 495.378048896789551, 855.0 ],
					"source" : [ "obj-37", 0 ]
				}

			}
, 			{
				"patchline" : 				{
					"destination" : [ "obj-43", 0 ],
					"midpoints" : [ 495.378048896789551, 831.0, 495.378048896789551, 831.0 ],
					"source" : [ "obj-39", 0 ]
				}

			}
, 			{
				"patchline" : 				{
					"destination" : [ "obj-2", 0 ],
					"midpoints" : [ 88.188271999359131, 492.0, 88.188271999359131, 492.0 ],
					"source" : [ "obj-4", 1 ]
				}

			}
, 			{
				"patchline" : 				{
					"destination" : [ "obj-72", 0 ],
					"midpoints" : [ 64.688271999359131, 492.0, 64.438271999359131, 492.0 ],
					"source" : [ "obj-4", 0 ]
				}

			}
, 			{
				"patchline" : 				{
					"destination" : [ "obj-90", 0 ],
					"midpoints" : [ 111.688271999359131, 492.0, 186.0, 492.0, 186.0, 333.0, 171.0, 333.0, 171.0, 138.0, 194.041385054588318, 138.0 ],
					"source" : [ "obj-4", 2 ]
				}

			}
, 			{
				"patchline" : 				{
					"destination" : [ "obj-41", 0 ],
					"midpoints" : [ 495.378048896789551, 894.0, 495.378048896789551, 894.0 ],
					"source" : [ "obj-43", 0 ]
				}

			}
, 			{
				"patchline" : 				{
					"destination" : [ "obj-30", 0 ],
					"midpoints" : [ 400.5, 632.0, 591.0, 632.0, 591.0, 567.0, 614.5, 567.0 ],
					"source" : [ "obj-46", 0 ]
				}

			}
, 			{
				"patchline" : 				{
					"destination" : [ "obj-1", 0 ],
					"midpoints" : [ 374.743905782699585, 381.0, 246.0, 381.0, 246.0, 684.0, 64.438271999359131, 684.0 ],
					"order" : 1,
					"source" : [ "obj-48", 0 ]
				}

			}
, 			{
				"patchline" : 				{
					"destination" : [ "obj-151", 0 ],
					"midpoints" : [ 374.743905782699585, 198.0, 398.5, 198.0 ],
					"order" : 0,
					"source" : [ "obj-48", 0 ]
				}

			}
, 			{
				"patchline" : 				{
					"destination" : [ "obj-1", 0 ],
					"midpoints" : [ 465.743905782699585, 198.0, 336.0, 198.0, 336.0, 381.0, 246.0, 381.0, 246.0, 684.0, 64.438271999359131, 684.0 ],
					"order" : 1,
					"source" : [ "obj-49", 0 ]
				}

			}
, 			{
				"patchline" : 				{
					"destination" : [ "obj-151", 0 ],
					"midpoints" : [ 465.743905782699585, 198.0, 398.5, 198.0 ],
					"order" : 0,
					"source" : [ "obj-49", 0 ]
				}

			}
, 			{
				"patchline" : 				{
					"destination" : [ "obj-1", 0 ],
					"midpoints" : [ 582.743905782699585, 198.0, 336.0, 198.0, 336.0, 381.0, 246.0, 381.0, 246.0, 684.0, 64.438271999359131, 684.0 ],
					"order" : 1,
					"source" : [ "obj-50", 0 ]
				}

			}
, 			{
				"patchline" : 				{
					"destination" : [ "obj-151", 0 ],
					"midpoints" : [ 582.743905782699585, 198.0, 398.5, 198.0 ],
					"order" : 0,
					"source" : [ "obj-50", 0 ]
				}

			}
, 			{
				"patchline" : 				{
					"destination" : [ "obj-1", 0 ],
					"midpoints" : [ 628.243905782699585, 198.0, 336.0, 198.0, 336.0, 381.0, 246.0, 381.0, 246.0, 684.0, 64.438271999359131, 684.0 ],
					"order" : 1,
					"source" : [ "obj-51", 0 ]
				}

			}
, 			{
				"patchline" : 				{
					"destination" : [ "obj-151", 0 ],
					"midpoints" : [ 628.243905782699585, 198.0, 398.5, 198.0 ],
					"order" : 0,
					"source" : [ "obj-51", 0 ]
				}

			}
, 			{
				"patchline" : 				{
					"destination" : [ "obj-15", 0 ],
					"midpoints" : [ 374.743905782699585, 123.0, 324.5, 123.0 ],
					"order" : 1,
					"source" : [ "obj-52", 0 ]
				}

			}
, 			{
				"patchline" : 				{
					"destination" : [ "obj-48", 0 ],
					"midpoints" : [ 374.743905782699585, 102.0, 374.743905782699585, 102.0 ],
					"order" : 0,
					"source" : [ "obj-52", 0 ]
				}

			}
, 			{
				"patchline" : 				{
					"destination" : [ "obj-49", 0 ],
					"midpoints" : [ 459.243905782699585, 123.0, 465.743905782699585, 123.0 ],
					"source" : [ "obj-52", 1 ]
				}

			}
, 			{
				"patchline" : 				{
					"destination" : [ "obj-50", 0 ],
					"midpoints" : [ 543.743905782699585, 123.0, 582.743905782699585, 123.0 ],
					"source" : [ "obj-52", 2 ]
				}

			}
, 			{
				"patchline" : 				{
					"destination" : [ "obj-51", 0 ],
					"source" : [ "obj-52", 3 ]
				}

			}
, 			{
				"patchline" : 				{
					"destination" : [ "obj-24", 0 ],
					"order" : 1,
					"source" : [ "obj-54", 0 ]
				}

			}
, 			{
				"patchline" : 				{
					"destination" : [ "obj-34", 0 ],
					"order" : 0,
					"source" : [ "obj-54", 0 ]
				}

			}
, 			{
				"patchline" : 				{
					"destination" : [ "obj-33", 0 ],
					"source" : [ "obj-56", 0 ]
				}

			}
, 			{
				"patchline" : 				{
					"destination" : [ "obj-54", 0 ],
					"source" : [ "obj-56", 1 ]
				}

			}
, 			{
				"patchline" : 				{
					"destination" : [ "obj-54", 0 ],
					"source" : [ "obj-57", 0 ]
				}

			}
, 			{
				"patchline" : 				{
					"destination" : [ "obj-73", 3 ],
					"midpoints" : [ 493.300000000000011, 339.0, 95.938271999359131, 339.0 ],
					"source" : [ "obj-66", 2 ]
				}

			}
, 			{
				"patchline" : 				{
					"destination" : [ "obj-91", 0 ],
					"midpoints" : [ 540.700000000000045, 330.0, 351.0, 330.0, 351.0, 90.0, 194.041385054588318, 90.0 ],
					"source" : [ "obj-66", 3 ]
				}

			}
, 			{
				"patchline" : 				{
					"destination" : [ "obj-117", 0 ],
					"midpoints" : [ 64.438271999359131, 564.0, 64.438271999359131, 564.0 ],
					"source" : [ "obj-72", 0 ]
				}

			}
, 			{
				"patchline" : 				{
					"destination" : [ "obj-80", 0 ],
					"midpoints" : [ 64.438271999359131, 369.0, 64.438271999359131, 369.0 ],
					"source" : [ "obj-73", 0 ]
				}

			}
, 			{
				"patchline" : 				{
					"destination" : [ "obj-73", 0 ],
					"midpoints" : [ 64.438271999359131, 300.0, 64.438271999359131, 300.0 ],
					"source" : [ "obj-76", 0 ]
				}

			}
, 			{
				"patchline" : 				{
					"destination" : [ "obj-17", 0 ],
					"midpoints" : [ 49.438271999359131, 803.512177705764771, 49.438231999999971, 803.512177705764771 ],
					"order" : 1,
					"source" : [ "obj-8", 0 ]
				}

			}
, 			{
				"patchline" : 				{
					"destination" : [ "obj-18", 0 ],
					"midpoints" : [ 162.438271999359131, 812.0, 194.438231999999971, 812.0 ],
					"order" : 1,
					"source" : [ "obj-8", 1 ]
				}

			}
, 			{
				"patchline" : 				{
					"destination" : [ "obj-3", 0 ],
					"midpoints" : [ 49.438271999359131, 812.512177705764771, 70.5, 812.512177705764771 ],
					"order" : 0,
					"source" : [ "obj-8", 0 ]
				}

			}
, 			{
				"patchline" : 				{
					"destination" : [ "obj-5", 0 ],
					"midpoints" : [ 162.438271999359131, 819.0, 218.041385054588318, 819.0 ],
					"order" : 0,
					"source" : [ "obj-8", 1 ]
				}

			}
, 			{
				"patchline" : 				{
					"destination" : [ "obj-4", 0 ],
					"midpoints" : [ 64.438271999359131, 456.0, 64.688271999359131, 456.0 ],
					"source" : [ "obj-80", 0 ]
				}

			}
, 			{
				"patchline" : 				{
					"destination" : [ "obj-11", 0 ],
					"midpoints" : [ 194.541385054588318, 774.0, 275.5, 774.0 ],
					"order" : 0,
					"source" : [ "obj-9", 0 ]
				}

			}
, 			{
				"patchline" : 				{
					"destination" : [ "obj-8", 1 ],
					"midpoints" : [ 194.541385054588318, 765.0, 162.438271999359131, 765.0 ],
					"order" : 1,
					"source" : [ "obj-9", 0 ]
				}

			}
, 			{
				"patchline" : 				{
					"destination" : [ "obj-104", 0 ],
					"midpoints" : [ 194.041385054588318, 183.0, 194.041385054588318, 183.0 ],
					"source" : [ "obj-90", 0 ]
				}

			}
, 			{
				"patchline" : 				{
					"destination" : [ "obj-90", 1 ],
					"midpoints" : [ 225.041385054588318, 126.0, 225.041385054588318, 126.0 ],
					"source" : [ "obj-91", 1 ]
				}

			}
, 			{
				"patchline" : 				{
					"destination" : [ "obj-90", 0 ],
					"midpoints" : [ 194.041385054588318, 126.0, 194.041385054588318, 126.0 ],
					"source" : [ "obj-91", 0 ]
				}

			}
, 			{
				"patchline" : 				{
					"destination" : [ "obj-96", 0 ],
					"midpoints" : [ 218.041385054588318, 243.0, 218.041385054588318, 243.0 ],
					"source" : [ "obj-92", 0 ]
				}

			}
, 			{
				"patchline" : 				{
					"destination" : [ "obj-125", 0 ],
					"midpoints" : [ 218.041385054588318, 288.0, 282.0, 288.0, 282.0, 432.0, 286.75, 432.0 ],
					"order" : 0,
					"source" : [ "obj-96", 0 ]
				}

			}
, 			{
				"patchline" : 				{
					"destination" : [ "obj-72", 2 ],
					"midpoints" : [ 218.041385054588318, 279.0, 171.0, 279.0, 171.0, 417.0, 186.0, 417.0, 186.0, 525.0, 111.938271999359131, 525.0 ],
					"order" : 2,
					"source" : [ "obj-96", 0 ]
				}

			}
, 			{
				"patchline" : 				{
					"destination" : [ "obj-99", 1 ],
					"midpoints" : [ 218.041385054588318, 279.0, 218.041385054588318, 279.0 ],
					"order" : 1,
					"source" : [ "obj-96", 0 ]
				}

			}
, 			{
				"patchline" : 				{
					"destination" : [ "obj-73", 4 ],
					"midpoints" : [ 194.041385054588318, 324.0, 106.438271999359131, 324.0 ],
					"source" : [ "obj-99", 0 ]
				}

			}
 ]
	}

}
